<?xml version="1.0" standalone="no"?>
<!DOCTYPE svg PUBLIC "-//W3C//DTD SVG 20010904//EN"
 "http://www.w3.org/TR/2001/REC-SVG-20010904/DTD/svg10.dtd">
<svg version="1.0" xmlns="http://www.w3.org/2000/svg"
 width="358.000000pt" height="222.000000pt" viewBox="0 0 358.000000 222.000000"
 preserveAspectRatio="xMidYMid meet">

<g transform="translate(0.000000,222.000000) scale(0.100000,-0.100000)"
fill="#000000" stroke="none">
<path d="M195 2131 c-45 -20 -91 -69 -112 -118 -18 -43 -20 -1764 -2 -1824 16
-53 58 -100 120 -134 l54 -30 1550 0 1550 0 47 23 c57 28 110 88 126 141 9 28
12 279 12 917 0 834 -1 881 -19 919 -23 49 -64 89 -113 109 -33 14 -210 16
-1605 16 -1500 0 -1570 -1 -1608 -19z m3189 -65 c18 -7 44 -29 57 -47 l24 -34
0 -885 0 -885 -22 -35 c-12 -20 -40 -46 -61 -58 l-40 -22 -1537 0 -1537 0 -40
22 c-21 12 -49 38 -61 58 l-22 35 -3 855 c-2 470 0 869 3 887 7 40 49 91 90
109 46 20 3101 20 3149 0z"/>
<path d="M777 2054 c-15 -16 -5 -24 28 -24 19 0 35 5 35 10 0 6 -6 10 -14 10
-8 0 -21 2 -28 5 -8 3 -17 2 -21 -1z"/>
<path d="M214 2007 c-3 -8 -4 -41 -2 -73 l3 -59 48 -3 c37 -2 47 0 47 12 0 12
-10 16 -35 16 -24 0 -35 5 -35 15 0 10 10 15 30 15 20 0 30 5 30 15 0 10 -10
15 -30 15 -20 0 -30 5 -30 15 0 11 11 15 36 15 51 0 39 24 -14 28 -29 2 -44
-1 -48 -11z"/>
<path d="M346 2001 c-24 -27 -14 -49 30 -67 27 -11 34 -18 26 -26 -8 -8 -18
-8 -36 0 -32 14 -48 -5 -21 -25 39 -27 95 -8 95 33 0 21 -8 29 -40 41 -44 18
-44 33 1 33 40 0 33 24 -7 28 -20 2 -36 -4 -48 -17z"/>
<path d="M472 2011 c-20 -12 -12 -136 8 -136 8 0 16 10 18 23 2 16 10 22 27
22 28 0 55 24 55 50 0 37 -72 64 -108 41z m68 -41 c0 -13 -7 -20 -20 -20 -13
0 -20 7 -20 20 0 13 7 20 20 20 13 0 20 -7 20 -20z"/>
<path d="M631 2001 c-30 -54 -50 -121 -39 -127 6 -4 16 0 23 9 15 21 64 22 71
2 7 -18 34 -20 34 -2 0 26 -54 137 -66 137 -7 0 -18 -8 -23 -19z m33 -47 c9
-23 8 -24 -13 -24 -14 0 -18 5 -14 20 6 24 19 26 27 4z"/>
<path d="M747 2013 c-4 -3 -7 -37 -7 -75 0 -54 3 -68 15 -68 10 0 15 11 15 35
0 44 9 44 38 0 13 -21 30 -35 42 -35 18 0 20 7 20 70 0 54 -3 70 -14 70 -10 0
-16 -13 -18 -41 l-3 -41 -32 46 c-32 45 -43 53 -56 39z"/>
<path d="M942 2007 c-12 -14 -52 -113 -52 -127 0 -6 7 -10 15 -10 8 0 15 5 15
10 0 6 18 10 40 10 22 0 40 -4 40 -10 0 -5 7 -10 15 -10 21 0 19 11 -14 85
-30 66 -40 75 -59 52z m31 -58 c3 -12 0 -22 -9 -26 -20 -7 -24 -1 -17 25 7 28
19 28 26 1z"/>
<path d="M1090 1990 c0 -28 2 -30 41 -30 26 0 50 7 66 20 14 11 31 20 38 20 6
0 20 -9 30 -20 13 -15 31 -20 67 -20 47 0 48 1 48 30 l0 30 -145 0 -145 0 0
-30z"/>
<path d="M1430 1960 c0 -46 2 -50 23 -50 29 0 47 18 47 46 0 40 -11 54 -41 54
-28 0 -29 -2 -29 -50z m45 2 c0 -46 -19 -44 -23 2 -3 28 0 37 10 34 7 -3 13
-19 13 -36z"/>
<path d="M2157 2003 c-11 -10 -8 -91 3 -98 6 -4 10 7 10 27 l0 33 27 -34 c24
-31 27 -32 34 -15 13 32 10 96 -3 92 -7 -3 -15 -15 -18 -28 l-5 -23 -12 27
c-13 26 -24 32 -36 19z"/>
<path d="M2900 1955 c0 -30 5 -55 10 -55 6 0 10 25 10 55 0 30 -4 55 -10 55
-5 0 -10 -25 -10 -55z"/>
<path d="M1534 1982 c-32 -22 -15 -78 22 -70 22 4 31 43 14 64 -14 16 -20 17
-36 6z m31 -37 c0 -11 -8 -21 -17 -23 -14 -3 -18 3 -18 23 0 20 4 26 18 23 9
-2 17 -12 17 -23z"/>
<path d="M1601 1972 c-16 -30 -2 -62 25 -62 13 0 24 4 24 9 0 5 -9 7 -21 4
-18 -5 -20 -2 -17 23 2 22 8 28 22 26 11 -2 15 1 11 7 -10 17 -33 13 -44 -7z"/>
<path d="M1719 1961 c-5 -46 -26 -50 -38 -9 l-10 33 2 -35 c2 -28 7 -36 25
-38 26 -4 35 14 30 55 -4 27 -4 27 -9 -6z"/>
<path d="M1750 1953 c0 -24 5 -43 10 -43 6 0 10 4 10 9 0 5 2 15 5 23 3 7 -1
22 -9 33 -14 19 -15 17 -16 -22z"/>
<path d="M1796 1958 c-20 -38 -20 -44 -2 -29 11 10 15 8 19 -6 3 -10 5 1 6 25
0 23 -1 42 -3 42 -3 0 -12 -14 -20 -32z"/>
<path d="M1840 1950 c0 -37 2 -40 28 -39 23 2 24 2 5 6 -27 5 -30 20 -5 26 16
4 16 5 0 6 -10 0 -18 5 -18 11 0 5 8 14 18 19 15 9 15 10 -5 11 -20 0 -23 -5
-23 -40z"/>
<path d="M1951 1967 c0 -18 -5 -26 -12 -21 -6 4 -5 -3 2 -17 l14 -24 3 23 c2
12 1 32 -1 45 -4 18 -4 17 -6 -6z"/>
<path d="M1988 1983 c6 -2 13 -21 14 -41 l1 -37 4 33 c2 17 8 32 14 32 5 0 9
5 9 10 0 6 -12 10 -27 9 -16 0 -22 -3 -15 -6z"/>
<path d="M2050 1975 c-20 -24 -4 -65 25 -65 18 0 26 7 31 25 7 27 -9 55 -31
55 -7 0 -18 -7 -25 -15z m40 -31 c0 -15 -6 -24 -15 -24 -15 0 -21 40 -9 53 12
11 24 -3 24 -29z"/>
<path d="M2264 1973 c-3 -10 -10 -29 -15 -42 -11 -27 -3 -43 11 -21 8 12 13
13 30 2 17 -10 20 -10 20 3 0 17 -27 75 -36 75 -2 0 -7 -8 -10 -17z m26 -34
c0 -5 -4 -9 -10 -9 -5 0 -10 7 -10 16 0 8 5 12 10 9 6 -3 10 -10 10 -16z"/>
<path d="M2327 1983 c-4 -3 -7 -21 -7 -39 0 -37 25 -53 48 -30 14 13 13 14 -6
9 -18 -4 -22 -1 -22 21 0 20 5 26 21 26 11 0 17 5 14 10 -7 11 -38 13 -48 3z"/>
<path d="M2390 1945 c0 -28 4 -44 10 -40 6 3 10 21 10 40 0 19 -4 37 -10 40
-6 4 -10 -12 -10 -40z"/>
<path d="M2427 1983 c-14 -13 -7 -71 9 -77 26 -10 33 -7 49 22 14 23 16 24 12
5 -3 -13 -1 -26 4 -29 5 -3 9 7 9 23 l1 28 17 -30 17 -30 5 40 c7 46 -1 72
-10 35 l-6 -25 -13 24 c-13 23 -15 23 -26 8 -11 -15 -13 -16 -19 -2 -5 15 -37
21 -49 8z m38 -24 c9 -26 -10 -48 -26 -32 -12 12 -3 53 11 53 5 0 12 -9 15
-21z"/>
<path d="M2581 1959 c-17 -50 -15 -62 9 -47 17 11 22 10 30 -2 8 -13 10 -13
10 1 0 24 -21 79 -30 79 -4 0 -13 -14 -19 -31z m29 -19 c0 -5 -4 -10 -10 -10
-5 0 -10 5 -10 10 0 6 5 10 10 10 6 0 10 -4 10 -10z"/>
<path d="M2646 1978 c-4 -9 -6 -29 -4 -45 2 -21 9 -29 28 -31 22 -2 23 -1 8
11 -9 7 -18 29 -20 48 -3 25 -6 30 -12 17z"/>
<path d="M2730 1946 c0 -37 3 -46 18 -46 31 0 44 16 40 51 -2 29 -7 34 -30 37
-27 3 -28 2 -28 -42z m45 14 c7 -21 0 -40 -16 -40 -5 0 -9 14 -9 30 0 34 15
40 25 10z"/>
<path d="M2804 1966 c-8 -35 4 -66 27 -66 10 0 19 5 19 10 0 6 -7 10 -15 10
-21 0 -19 20 3 20 15 1 15 2 -2 15 -19 14 -18 15 5 24 l24 10 -27 0 c-21 1
-29 -5 -34 -23z"/>
<path d="M2940 1945 c0 -37 3 -45 18 -45 24 0 42 19 42 45 0 26 -18 45 -42 45
-15 0 -18 -8 -18 -45z m40 0 c0 -14 -4 -25 -10 -25 -5 0 -10 11 -10 25 0 14 5
25 10 25 6 0 10 -11 10 -25z"/>
<path d="M3010 1945 c0 -41 2 -45 25 -45 14 0 25 5 25 10 0 6 -7 10 -15 10
-21 0 -19 18 3 23 16 4 16 5 0 6 -10 0 -18 7 -18 15 0 8 8 17 18 19 10 3 6 5
-10 6 -27 1 -28 -1 -28 -44z"/>
<path d="M3070 1945 c0 -25 5 -45 10 -45 6 0 10 12 10 28 l1 27 15 -27 c8 -16
17 -28 19 -28 3 0 5 21 4 48 -1 36 -3 41 -8 22 l-7 -25 -12 23 c-20 35 -32 26
-32 -23z"/>
<path d="M3148 1984 c6 -3 12 -23 12 -45 0 -21 5 -39 10 -39 6 0 10 15 10 34
0 19 5 38 10 41 6 4 10 -10 10 -34 0 -23 5 -41 10 -41 6 0 10 19 10 43 l0 43
-42 2 c-24 0 -37 -1 -30 -4z"/>
<path d="M3234 1976 c-3 -8 -4 -27 -2 -43 2 -20 9 -29 25 -31 30 -4 50 36 34
67 -13 24 -49 28 -57 7z m41 -31 c0 -10 -6 -20 -12 -22 -8 -3 -13 5 -13 22 0
17 5 25 13 23 6 -3 12 -13 12 -23z"/>
<path d="M3311 1953 c-15 -52 -14 -55 9 -41 14 9 23 10 28 3 4 -6 21 -12 39
-13 40 -4 61 27 44 65 -18 38 -55 28 -60 -17 l-3 -35 -12 34 c-17 48 -33 49
-45 4z m104 7 c7 -21 0 -40 -16 -40 -5 0 -9 14 -9 30 0 34 15 40 25 10z m-75
-20 c0 -5 -2 -10 -4 -10 -3 0 -8 5 -11 10 -3 6 -1 10 4 10 6 0 11 -4 11 -10z"/>
<path d="M1900 1946 c0 -37 19 -51 22 -16 0 11 1 25 2 32 1 6 -5 13 -11 16 -9
2 -13 -8 -13 -32z"/>
<path d="M1210 1954 c-11 -12 -10 -18 4 -32 16 -16 18 -16 31 2 11 14 12 23 4
33 -15 17 -24 16 -39 -3z"/>
<path d="M1090 1885 l0 -36 143 3 142 3 3 33 c3 32 3 32 -43 32 -32 0 -52 -6
-67 -20 -12 -11 -30 -20 -40 -20 -10 0 -27 9 -38 20 -13 13 -33 20 -60 20 -39
0 -40 -1 -40 -35z"/>
<path d="M2842 1804 c-85 -43 -82 -184 3 -220 24 -10 76 -14 173 -14 128 0
142 2 173 23 19 13 40 39 48 61 13 33 13 44 0 79 -25 72 -49 82 -217 85 -121
2 -153 -1 -180 -14z m314 -52 c20 -13 35 -52 29 -72 -15 -46 -29 -50 -172 -50
-152 0 -173 8 -173 63 0 60 18 67 169 67 75 0 141 -4 147 -8z"/>
<path d="M632 1795 c-119 -26 -223 -107 -274 -214 -26 -54 -32 -81 -35 -151
-3 -63 -10 -95 -26 -125 -20 -37 -22 -56 -25 -259 -3 -162 1 -244 12 -316 14
-88 14 -102 0 -135 -9 -22 -14 -59 -12 -93 l3 -57 440 -3 c242 -1 450 0 463 3
19 5 22 12 22 53 0 70 -17 119 -56 162 l-35 39 21 68 c16 48 23 105 27 198 4
85 10 137 19 150 19 26 18 149 0 183 -8 15 -18 65 -24 112 -13 119 -43 189
-109 260 -65 71 -148 115 -243 130 -80 12 -89 12 -168 -5z m242 -326 c10 -17
38 -56 63 -85 48 -60 49 -83 3 -59 -16 8 -46 15 -66 15 -30 0 -44 -7 -75 -40
-25 -26 -47 -40 -64 -40 -17 0 -39 14 -64 40 -31 33 -45 40 -76 40 -21 0 -53
-5 -72 -12 -39 -14 -42 -12 -36 27 4 29 7 30 45 26 23 -2 67 2 97 9 62 14 180
69 200 94 19 22 24 20 45 -15z m-458 -240 c-3 -34 -6 -75 -6 -90 0 -37 -22
-38 -49 -3 -15 19 -21 41 -21 75 0 54 18 79 57 79 26 0 26 0 19 -61z m214 41
c11 -11 20 -29 20 -40 0 -25 -34 -60 -58 -60 -32 0 -62 29 -62 60 0 53 62 78
100 40z m292 3 c26 -31 28 -51 7 -77 -33 -43 -87 -29 -104 25 -5 14 0 28 16
45 27 28 60 31 81 7z m190 0 c26 -24 25 -116 -2 -143 -38 -38 -48 -27 -52 63
-2 45 -2 85 0 90 6 13 35 8 54 -10z m-597 -130 c52 -46 160 -17 180 47 10 30
72 28 84 -2 33 -85 170 -88 206 -5 14 31 14 30 15 -39 0 -39 -5 -86 -11 -105
-18 -53 -71 -112 -130 -144 -46 -25 -65 -30 -124 -30 -81 1 -132 22 -191 82
-58 58 -74 103 -73 213 1 83 2 89 10 50 5 -28 18 -53 34 -67z m220 -334 c33 0
72 4 86 10 26 9 26 9 33 -47 6 -46 3 -61 -12 -82 -43 -57 -137 -63 -192 -12
-31 28 -34 39 -32 109 2 42 2 42 29 32 15 -6 55 -10 88 -10z m-154 -136 c33
-51 97 -85 159 -85 61 0 133 39 156 85 9 18 17 33 18 34 4 5 103 -25 132 -40
45 -23 90 -79 98 -122 4 -20 6 -38 4 -40 -2 -2 -189 -5 -416 -7 l-412 -3 0 24
c0 47 40 110 86 137 41 24 113 52 140 53 6 1 22 -16 35 -36z"/>
<path d="M623 1053 c-18 -47 67 -110 134 -97 64 12 120 91 77 108 -10 4 -26
-5 -44 -24 -38 -40 -78 -40 -113 0 -31 34 -45 37 -54 13z"/>
<path d="M1417 1673 c-15 -14 -6 -39 13 -39 21 0 24 5 14 30 -7 17 -16 20 -27
9z"/>
<path d="M1460 1655 c0 -22 2 -24 14 -13 9 8 10 15 4 19 -6 4 -5 9 3 12 10 4
9 6 -3 6 -13 1 -18 -7 -18 -24z"/>
<path d="M1500 1655 c0 -17 5 -25 18 -25 14 0 15 2 2 10 -13 9 -13 10 0 10 12
0 13 2 1 9 -11 7 -11 9 0 14 10 4 9 6 -3 6 -13 1 -18 -7 -18 -24z"/>
<path d="M1541 1658 c-1 -23 3 -28 22 -27 15 1 17 3 5 6 -9 2 -19 14 -21 26
-4 18 -5 17 -6 -5z"/>
<path d="M1591 1658 c-1 -21 4 -28 17 -28 11 0 13 3 6 8 -7 4 -14 16 -17 27
-4 15 -5 14 -6 -7z"/>
<path d="M1632 1655 c0 -16 2 -22 5 -12 2 9 2 23 0 30 -3 6 -5 -1 -5 -18z"/>
<path d="M1650 1655 c0 -20 4 -26 18 -23 9 2 17 12 17 23 0 11 -8 21 -17 23
-14 3 -18 -3 -18 -23z m30 0 c0 -8 -4 -15 -10 -15 -5 0 -10 7 -10 15 0 8 5 15
10 15 6 0 10 -7 10 -15z"/>
<path d="M1700 1655 c0 -20 4 -26 18 -23 9 2 17 12 17 23 0 11 -8 21 -17 23
-14 3 -18 -3 -18 -23z m30 0 c0 -8 -4 -15 -10 -15 -5 0 -10 7 -10 15 0 8 5 15
10 15 6 0 10 -7 10 -15z"/>
<path d="M1750 1671 c0 -6 5 -13 11 -17 8 -4 7 -9 -2 -15 -11 -7 -10 -9 3 -9
23 0 33 19 13 26 -13 6 -14 8 -3 15 10 7 9 9 -4 9 -10 0 -18 -4 -18 -9z"/>
<path d="M1419 1566 c-17 -36 -4 -78 23 -74 26 4 36 27 11 24 -20 -1 -30 31
-14 47 9 9 14 8 21 -3 11 -18 25 -6 17 15 -10 24 -46 18 -58 -9z"/>
<path d="M1504 1545 c-9 -25 -13 -49 -9 -53 4 -4 10 -1 12 6 6 15 35 16 51 0
9 -9 12 -9 12 0 0 20 -32 92 -40 92 -5 0 -16 -20 -26 -45z m36 -6 c0 -5 -4 -9
-10 -9 -5 0 -10 7 -10 16 0 8 5 12 10 9 6 -3 10 -10 10 -16z"/>
<path d="M1587 1584 c-11 -11 -8 -82 4 -89 5 -4 21 -4 34 -1 22 6 24 11 22 49
-3 36 -6 42 -28 45 -14 2 -28 0 -32 -4z m33 -24 c0 -5 -4 -10 -10 -10 -5 0
-10 5 -10 10 0 6 5 10 10 10 6 0 10 -4 10 -10z m10 -40 c0 -5 -7 -10 -15 -10
-8 0 -15 5 -15 10 0 6 7 10 15 10 8 0 15 -4 15 -10z"/>
<path d="M1670 1539 c0 -31 4 -48 10 -44 6 3 10 14 11 23 0 13 3 12 11 -5 17
-35 25 -28 25 20 0 43 -9 57 -39 57 -15 0 -18 -9 -18 -51z m40 22 c0 -6 -4
-13 -10 -16 -5 -3 -10 1 -10 9 0 9 5 16 10 16 6 0 10 -4 10 -9z"/>
<path d="M1750 1540 c0 -47 2 -50 25 -50 14 0 25 5 25 10 0 6 -7 10 -15 10 -8
0 -15 5 -15 10 0 6 7 10 15 10 8 0 15 5 15 10 0 6 -7 10 -15 10 -8 0 -15 5
-15 10 0 6 7 10 15 10 8 0 15 5 15 10 0 6 -11 10 -25 10 -23 0 -25 -3 -25 -50z"/>
<path d="M1820 1540 c0 -27 5 -50 10 -50 6 0 10 7 10 15 0 20 10 19 27 -2 14
-17 14 -17 10 3 -3 12 -1 28 4 35 12 20 -9 49 -36 49 -23 0 -25 -4 -25 -50z
m42 15 c0 -5 -5 -11 -11 -13 -6 -2 -11 4 -11 13 0 9 5 15 11 13 6 -2 11 -8 11
-13z"/>
<path d="M1922 1563 c-20 -52 -24 -73 -13 -73 6 0 11 5 11 11 0 7 11 9 31 5
28 -5 30 -4 23 17 -23 76 -35 84 -52 40z m24 -30 c-10 -10 -19 5 -10 18 6 11
8 11 12 0 2 -7 1 -15 -2 -18z"/>
<path d="M1408 1453 c7 -2 12 -22 12 -45 0 -27 4 -38 13 -35 7 2 11 16 9 33
-2 18 3 33 14 41 16 11 13 13 -22 12 -21 0 -33 -3 -26 -6z"/>
<path d="M1491 1438 c-25 -67 -22 -85 7 -56 10 10 17 10 32 0 24 -15 26 -3 9
47 -13 36 -36 41 -48 9z m29 -13 c0 -8 -4 -15 -10 -15 -5 0 -7 7 -4 15 4 8 8
15 10 15 2 0 4 -7 4 -15z"/>
<path d="M1570 1415 c0 -25 5 -45 10 -45 6 0 10 6 10 14 0 8 9 18 20 21 13 4
20 15 20 31 0 20 -5 24 -30 24 -29 0 -30 -2 -30 -45z m40 20 c0 -8 -4 -15 -10
-15 -5 0 -10 7 -10 15 0 8 5 15 10 15 6 0 10 -7 10 -15z"/>
<path d="M1650 1415 c0 -25 5 -45 10 -45 6 0 10 20 10 45 0 25 -4 45 -10 45
-5 0 -10 -20 -10 -45z"/>
<path d="M1694 1425 c-23 -55 -19 -65 16 -42 17 10 22 9 30 -3 16 -26 22 -3 9
39 -15 50 -35 52 -55 6z m32 -12 c-10 -10 -19 5 -10 18 6 11 8 11 12 0 2 -7 1
-15 -2 -18z"/>
<path d="M2030 1261 c0 -28 5 -51 10 -51 6 0 10 20 10 44 0 25 -4 48 -10 51
-6 4 -10 -13 -10 -44z"/>
<path d="M2077 1303 c-4 -3 -7 -27 -7 -52 1 -43 2 -45 15 -27 13 17 15 18 15
3 0 -25 17 -21 26 6 l8 22 7 -25 c7 -24 7 -23 10 8 1 17 2 37 3 44 2 25 -24
18 -30 -9 l-7 -28 -14 33 c-14 34 -16 36 -26 25z"/>
<path d="M2177 1303 c-4 -3 -7 -26 -7 -50 0 -41 1 -43 30 -43 17 0 30 5 30 10
0 6 -9 10 -20 10 -11 0 -20 5 -20 10 0 6 7 10 15 10 8 0 15 5 15 10 0 6 -7 10
-15 10 -8 0 -15 5 -15 10 0 6 9 10 20 10 11 0 20 5 20 10 0 11 -43 14 -53 3z"/>
<path d="M2247 1304 c-11 -11 -8 -94 3 -94 6 0 10 12 10 28 l1 27 20 -27 c30
-40 39 -35 39 22 0 28 -4 50 -10 50 -5 0 -10 -12 -10 -27 l0 -28 -23 28 c-12
16 -26 25 -30 21z"/>
<path d="M2356 1288 c-19 -31 -29 -78 -16 -78 5 0 10 5 10 10 0 14 33 12 49
-2 11 -11 12 -8 7 14 -9 38 -25 78 -31 78 -2 0 -11 -10 -19 -22z m24 -28 c0
-5 -4 -10 -10 -10 -5 0 -10 5 -10 10 0 6 5 10 10 10 6 0 10 -4 10 -10z"/>
<path d="M1413 1274 c0 -17 2 -22 7 -13 5 6 6 18 3 26 -8 19 -10 16 -10 -13z"/>
<path d="M1438 1280 c-7 -24 -3 -38 8 -28 3 4 4 17 2 30 l-3 23 -7 -25z"/>
<path d="M1478 1293 c7 -3 16 -2 19 1 4 3 -2 6 -13 5 -11 0 -14 -3 -6 -6z"/>
<path d="M1520 1275 c0 -23 3 -26 10 -15 9 13 10 13 10 0 0 -12 2 -13 9 -1 7
11 9 11 14 0 3 -8 6 -1 6 15 1 28 0 28 -13 11 -13 -18 -13 -18 -24 1 -10 17
-11 16 -12 -11z"/>
<path d="M1599 1291 c7 -5 9 -10 3 -12 -6 -2 -4 -9 4 -17 12 -11 14 -9 14 13
0 17 -5 25 -17 25 -14 0 -15 -2 -4 -9z"/>
<path d="M1635 1290 c-4 -6 -4 -14 -1 -17 3 -4 6 -1 6 5 0 7 5 12 11 12 6 0 9
-7 6 -15 -4 -8 -2 -17 2 -19 5 -3 8 4 7 16 -1 24 -20 35 -31 18z"/>
<path d="M1687 1293 c-14 -13 -7 -32 9 -26 12 4 13 8 3 13 -8 6 -6 9 7 13 14
3 15 5 3 6 -9 0 -19 -2 -22 -6z"/>
<path d="M1961 1279 c8 -15 8 -24 0 -32 -6 -6 -11 -17 -11 -25 0 -12 3 -12 15
-2 12 10 18 10 30 0 12 -10 15 -10 15 3 0 9 -5 19 -10 22 -7 4 -6 13 1 26 12
23 3 41 -10 20 -6 -9 -11 -10 -15 -2 -13 21 -27 12 -15 -10z"/>
<path d="M1460 1271 c0 -6 4 -13 10 -16 6 -3 7 1 4 9 -7 18 -14 21 -14 7z"/>
<path d="M1496 1263 c-6 -14 -5 -15 5 -6 7 7 10 15 7 18 -3 3 -9 -2 -12 -12z"/>
<path d="M2977 1252 c-60 -37 -84 -145 -42 -192 13 -15 15 -31 9 -93 l-7 -75
48 -7 c49 -8 162 -1 173 9 3 4 1 37 -4 75 -8 61 -7 72 8 91 26 32 24 119 -3
154 -43 55 -126 73 -182 38z m121 -58 c29 -20 31 -85 2 -114 -17 -17 -18 -25
-10 -77 6 -32 10 -59 10 -60 0 -2 -23 -3 -50 -3 l-51 0 7 53 c4 28 8 54 10 56
2 2 -8 17 -21 33 -30 36 -32 67 -4 102 24 30 72 35 107 10z"/>
<path d="M1415 1157 c3 -16 1 -35 -6 -43 -15 -19 -4 -30 15 -15 10 8 16 9 21
1 12 -19 26 -11 15 10 -6 11 -8 32 -5 47 6 25 5 26 -7 11 -13 -15 -15 -15 -26
0 -11 15 -12 13 -7 -11z"/>
<path d="M1480 1135 c0 -25 4 -45 9 -45 5 0 16 -3 25 -6 9 -3 16 -1 16 5 0 6
-7 11 -15 11 -8 0 -15 5 -15 10 0 6 7 10 15 10 8 0 15 5 15 10 0 6 -7 10 -15
10 -8 0 -15 5 -15 10 0 6 7 10 15 10 8 0 15 5 15 10 0 6 -11 10 -25 10 -23 0
-25 -4 -25 -45z"/>
<path d="M1562 1168 c-31 -31 2 -100 37 -79 9 6 7 10 -9 14 -17 4 -21 12 -18
34 2 16 8 27 16 26 6 -2 12 2 12 7 0 14 -23 13 -38 -2z"/>
<path d="M1627 1173 c-11 -10 -8 -71 3 -78 6 -4 10 12 10 39 0 47 -2 51 -13
39z"/>
<path d="M1660 1161 c0 -33 19 -71 35 -71 16 0 35 38 35 71 0 33 -17 21 -25
-18 -5 -27 -9 -33 -16 -22 -5 8 -9 24 -9 37 0 12 -4 22 -10 22 -5 0 -10 -9
-10 -19z"/>
<path d="M1761 1167 c-6 -8 -13 -27 -17 -43 -5 -28 -4 -29 30 -30 33 0 35 1
30 25 -15 67 -21 74 -43 48z m19 -32 c0 -8 -4 -15 -10 -15 -5 0 -7 7 -4 15 4
8 8 15 10 15 2 0 4 -7 4 -15z"/>
<path d="M1961 1158 c-24 -64 -24 -63 17 -63 38 0 39 0 32 31 -13 58 -34 71
-49 32z m29 -23 c0 -8 -4 -15 -10 -15 -5 0 -10 7 -10 15 0 8 5 15 10 15 6 0
10 -7 10 -15z"/>
<path d="M2030 1135 c0 -49 15 -64 48 -49 15 7 14 8 -5 11 -19 4 -23 11 -23
44 0 21 -4 39 -10 39 -5 0 -10 -20 -10 -45z"/>
<path d="M2115 1150 c-8 -16 -15 -39 -14 -52 0 -13 3 -17 6 -10 6 15 35 16 51
0 16 -16 16 17 1 61 -14 39 -24 39 -44 1z m35 -21 c0 -5 -4 -9 -10 -9 -5 0
-10 7 -10 16 0 8 5 12 10 9 6 -3 10 -10 10 -16z"/>
<path d="M2188 1156 c-3 -16 -2 -40 2 -55 l8 -26 2 30 1 30 22 -27 c13 -16 26
-28 30 -28 4 0 7 23 7 51 0 31 -4 48 -10 44 -5 -3 -10 -16 -10 -28 0 -21 -2
-20 -24 7 l-23 30 -5 -28z"/>
<path d="M2297 1173 c-3 -5 -9 -24 -14 -43 l-10 -35 38 0 c42 0 42 -1 18 63
-8 22 -24 29 -32 15z m18 -43 c3 -5 1 -10 -4 -10 -6 0 -11 5 -11 10 0 6 2 10
4 10 3 0 8 -4 11 -10z"/>
<path d="M1419 988 c-1 -2 -3 -16 -5 -31 -2 -22 1 -28 13 -25 22 4 29 28 9 28
-9 0 -16 5 -16 11 0 5 5 7 10 4 6 -3 10 -1 10 4 0 9 -18 16 -21 9z"/>
<path d="M1460 960 c0 -22 5 -30 18 -30 13 0 14 2 3 9 -11 7 -11 9 0 14 12 5
12 6 0 6 -11 1 -11 4 -1 16 10 12 10 15 -4 15 -11 0 -16 -9 -16 -30z"/>
<path d="M1500 975 c0 -22 16 -52 24 -45 2 3 7 19 10 35 5 21 4 24 -2 10 -9
-19 -9 -19 -20 0 -11 20 -11 20 -12 0z"/>
<path d="M1554 976 c-8 -22 3 -49 19 -43 6 2 12 14 12 27 0 27 -22 39 -31 16z
m26 -15 c0 -6 -4 -13 -10 -16 -5 -3 -10 1 -10 9 0 9 5 16 10 16 6 0 10 -4 10
-9z"/>
<path d="M2170 962 c0 -28 2 -29 45 -29 25 0 45 4 45 10 0 5 7 4 15 -3 13 -11
15 -8 15 16 0 20 -3 25 -9 15 -5 -8 -11 -9 -15 -3 -9 15 -59 11 -73 -7 -12
-15 -13 -15 -7 0 3 10 1 20 -5 24 -7 4 -11 -5 -11 -23z m55 -1 c3 -5 1 -12 -5
-16 -5 -3 -10 1 -10 9 0 18 6 21 15 7z"/>
<path d="M2021 951 c0 -23 1 -24 9 -6 7 18 9 18 15 3 5 -12 19 -16 63 -15 31
0 51 2 45 4 -7 3 -13 11 -13 18 0 7 6 16 13 18 7 4 6 6 -4 6 -9 1 -20 -6 -23
-16 -6 -14 -8 -14 -21 3 -13 18 -14 18 -24 -6 -8 -21 -10 -22 -10 -5 -1 14 -8
20 -26 21 -21 2 -25 -2 -24 -25z"/>
<path d="M2314 964 c3 -8 2 -12 -4 -9 -6 3 -10 0 -10 -7 0 -8 9 -14 20 -14 11
0 20 3 20 7 0 17 -13 39 -22 39 -6 0 -7 -7 -4 -16z"/>
<path d="M2351 958 c-1 -21 4 -28 17 -28 11 0 13 3 6 8 -7 4 -14 16 -17 27 -4
15 -5 14 -6 -7z"/>
<path d="M2400 956 c0 -20 5 -26 21 -26 15 0 20 5 17 22 -5 34 -38 37 -38 4z
m30 -1 c0 -8 -4 -15 -10 -15 -5 0 -10 7 -10 15 0 8 5 15 10 15 6 0 10 -7 10
-15z"/>
<path d="M2457 966 c-11 -27 -9 -32 13 -32 24 0 25 6 7 30 -13 18 -14 18 -20
2z"/>
<path d="M2500 955 c0 -20 4 -26 18 -23 9 2 17 12 17 23 0 11 -8 21 -17 23
-14 3 -18 -3 -18 -23z m30 6 c0 -6 -4 -13 -10 -16 -5 -3 -10 1 -10 9 0 9 5 16
10 16 6 0 10 -4 10 -9z"/>
<path d="M1415 866 c-20 -30 -5 -76 25 -76 23 0 36 36 26 75 -8 31 -31 32 -51
1z m35 -26 c0 -16 -4 -30 -10 -30 -5 0 -10 14 -10 30 0 17 5 30 10 30 6 0 10
-13 10 -30z"/>
<path d="M1490 880 c0 -5 9 -10 20 -10 19 0 20 -2 5 -36 -18 -43 -18 -44 -6
-44 11 0 42 86 33 94 -9 10 -52 7 -52 -4z"/>
<path d="M1628 876 c-21 -15 -24 -30 -5 -23 10 4 12 -3 9 -23 -2 -15 1 -31 7
-34 7 -5 11 9 11 43 0 28 -1 51 -2 51 -2 0 -11 -7 -20 -14z"/>
<path d="M1691 876 c-7 -8 -11 -30 -9 -48 2 -25 8 -34 25 -36 31 -4 48 33 34
71 -12 30 -32 35 -50 13z m34 -17 c10 -15 -4 -61 -15 -54 -13 8 -13 65 -1 65
6 0 13 -5 16 -11z"/>
<path d="M1807 884 c-13 -13 -7 -26 8 -21 24 10 26 -9 5 -36 -27 -34 -25 -37
13 -36 17 1 24 3 15 6 -22 6 -22 12 -1 35 13 15 15 23 7 36 -12 19 -36 27 -47
16z"/>
<path d="M1884 877 c-3 -8 -4 -30 -2 -49 2 -28 7 -33 28 -33 23 0 25 4 25 45
0 39 -3 45 -23 48 -13 2 -24 -3 -28 -11z m36 -37 c0 -32 -14 -40 -24 -15 -6
18 2 45 15 45 5 0 9 -13 9 -30z"/>
<path d="M1964 865 c-10 -39 3 -75 26 -75 12 0 25 10 32 25 15 33 -3 75 -32
75 -13 0 -22 -9 -26 -25z m44 -27 c-2 -18 -7 -33 -13 -33 -5 0 -11 15 -13 33
-3 24 1 32 13 32 12 0 16 -8 13 -32z"/>
<path d="M2040 880 c0 -5 10 -10 21 -10 17 0 20 -4 15 -20 -3 -11 -9 -29 -12
-40 -11 -37 12 -21 25 18 8 20 16 43 18 50 4 8 -6 12 -31 12 -20 0 -36 -4 -36
-10z"/>
<path d="M2200 840 c0 -49 1 -50 31 -50 17 0 28 4 24 10 -3 6 -13 10 -21 10
-8 0 -14 5 -14 10 0 6 7 10 15 10 8 0 15 5 15 10 0 6 -7 10 -15 10 -8 0 -15 5
-15 10 0 6 9 10 20 10 11 0 20 5 20 10 0 6 -13 10 -30 10 -29 0 -30 -1 -30
-50z"/>
<path d="M2277 883 c-14 -14 -6 -45 13 -50 26 -7 25 -19 -2 -28 -20 -6 -21 -8
-5 -12 10 -3 25 -2 33 1 21 8 17 44 -6 51 -11 3 -20 11 -20 16 0 5 9 9 20 9
11 0 20 5 20 10 0 11 -43 14 -53 3z"/>
<path d="M2357 883 c-11 -10 -8 -93 3 -93 6 0 10 6 10 14 0 8 9 17 19 21 25 7
35 34 20 51 -12 15 -41 19 -52 7z m35 -28 c0 -5 -5 -11 -11 -13 -6 -2 -11 4
-11 13 0 9 5 15 11 13 6 -2 11 -8 11 -13z"/>
<path d="M1412 685 c0 -16 2 -22 5 -12 2 9 2 23 0 30 -3 6 -5 -1 -5 -18z"/>
<path d="M1430 686 c0 -20 5 -26 21 -26 15 0 20 5 17 22 -5 34 -38 37 -38 4z
m30 -1 c0 -8 -4 -15 -10 -15 -5 0 -10 7 -10 15 0 8 5 15 10 15 6 0 10 -7 10
-15z"/>
<path d="M1500 685 c0 -29 6 -31 26 -11 20 20 17 36 -6 36 -15 0 -20 -7 -20
-25z"/>
<path d="M1552 685 c0 -16 2 -22 5 -12 2 9 2 23 0 30 -3 6 -5 -1 -5 -18z"/>
<path d="M1577 703 c-16 -16 -6 -43 16 -43 16 0 18 3 9 9 -8 4 -14 12 -14 16
0 4 6 12 14 16 10 7 10 9 -3 9 -9 0 -19 -3 -22 -7z"/>
<path d="M1620 688 c0 -16 6 -24 19 -25 24 -2 23 40 -1 45 -13 3 -18 -3 -18
-20z"/>
<path d="M1671 703 c0 -5 4 -17 8 -28 7 -17 8 -17 13 8 4 19 1 27 -8 27 -8 0
-14 -3 -13 -7z"/>
<path d="M1760 686 c0 -20 5 -26 21 -26 15 0 20 5 17 22 -5 34 -38 37 -38 4z
m30 -1 c0 -8 -4 -15 -10 -15 -5 0 -10 7 -10 15 0 8 5 15 10 15 6 0 10 -7 10
-15z"/>
<path d="M2400 700 c0 -8 5 -22 10 -30 9 -13 11 -13 20 0 5 8 10 22 10 30 0
13 -1 13 -10 0 -9 -13 -11 -13 -20 0 -9 13 -10 13 -10 0z"/>
<path d="M2501 688 c-1 -27 14 -46 27 -33 3 3 1 9 -5 13 -6 4 -13 16 -16 27
-4 16 -5 14 -6 -7z"/>
<path d="M2540 685 c0 -20 4 -26 18 -23 9 2 17 12 17 23 0 11 -8 21 -17 23
-14 3 -18 -3 -18 -23z m30 -6 c0 -5 -4 -9 -10 -9 -5 0 -10 7 -10 16 0 8 5 12
10 9 6 -3 10 -10 10 -16z"/>
<path d="M2590 680 c0 -20 5 -30 15 -30 8 0 15 5 15 10 0 6 -6 10 -12 10 -9 0
-8 4 2 10 13 9 13 10 0 10 -13 0 -13 1 0 10 13 8 12 10 -2 10 -13 0 -18 -8
-18 -30z"/>
<path d="M2635 683 c0 -27 18 -42 30 -24 3 6 1 11 -5 11 -7 0 -9 8 -5 20 4 13
2 20 -7 20 -9 0 -14 -11 -13 -27z"/>
<path d="M1716 685 c-3 -9 -6 -18 -6 -19 0 -1 9 -2 20 -2 13 0 20 6 18 15 -4
21 -24 25 -32 6z"/>
<path d="M2447 679 c-4 -14 -2 -19 8 -16 7 3 18 0 24 -6 8 -8 11 -8 11 0 0 41
-34 59 -43 22z"/>
<path d="M1420 615 c-8 -9 -8 -15 -2 -15 6 0 12 -19 14 -42 4 -60 23 -49 23
14 0 53 -13 70 -35 43z"/>
<path d="M1490 611 c-20 -38 -5 -101 25 -101 38 0 62 79 33 108 -18 18 -46 14
-58 -7z m44 -26 c6 -17 -2 -45 -14 -45 -4 0 -10 8 -12 18 -9 34 13 59 26 27z"/>
<path d="M1640 614 c-33 -38 0 -122 38 -98 29 19 38 59 18 88 -19 30 -38 33
-56 10z m40 -45 c0 -38 -24 -35 -28 4 -2 19 1 27 12 27 11 0 16 -10 16 -31z"/>
<path d="M1732 618 c-17 -17 -15 -47 3 -54 10 -4 13 -13 10 -25 -4 -13 -1 -19
8 -19 18 0 40 50 35 82 -3 26 -36 36 -56 16z m38 -29 c0 -5 -7 -9 -15 -9 -15
0 -20 12 -9 23 8 8 24 -1 24 -14z"/>
<path d="M2045 614 c-21 -21 -20 -83 1 -91 36 -13 62 24 50 72 -7 29 -31 38
-51 19z m35 -45 c0 -19 -5 -29 -15 -29 -15 0 -22 50 -9 63 12 12 24 -4 24 -34z"/>
<path d="M2127 622 c-9 -2 -15 -7 -12 -12 3 -5 12 -7 20 -3 19 7 19 -14 0 -47
-17 -30 -18 -40 -5 -40 10 0 40 63 40 85 0 15 -18 23 -43 17z"/>
<path d="M2612 619 c-20 -8 -23 -15 -20 -50 4 -51 29 -73 54 -47 20 20 21 76
2 94 -9 8 -20 9 -36 3z m28 -49 c0 -20 -5 -30 -15 -30 -15 0 -21 40 -8 53 14
15 23 6 23 -23z"/>
<path d="M2692 618 c-16 -16 -15 -43 2 -57 8 -7 12 -21 9 -31 -8 -31 15 -24
32 10 19 38 19 76 -1 84 -22 8 -28 8 -42 -6z m36 -29 c-2 -6 -8 -10 -13 -10
-5 0 -11 4 -13 10 -2 6 4 11 13 11 9 0 15 -5 13 -11z"/>
<path d="M2830 615 c-10 -13 -9 -15 9 -15 27 0 27 -21 1 -45 -31 -28 -25 -45
15 -45 19 0 35 5 35 10 0 6 -7 10 -15 10 -8 0 -15 4 -15 9 0 5 7 14 15 21 18
15 19 42 3 58 -16 16 -33 15 -48 -3z"/>
<path d="M2922 618 c-17 -17 -15 -83 3 -98 40 -33 82 37 51 85 -18 27 -36 31
-54 13z m42 -61 c-3 -15 -10 -27 -14 -27 -13 0 -22 38 -15 61 11 33 38 1 29
-34z"/>
<path d="M3017 623 c-14 -13 -6 -25 13 -20 27 7 26 -20 -2 -50 -27 -28 -13
-49 26 -39 29 7 35 26 9 26 -15 0 -15 1 0 18 20 22 22 43 5 60 -13 13 -41 16
-51 5z"/>
<path d="M3115 620 c-3 -5 3 -10 14 -10 24 0 28 -18 6 -26 -8 -4 -15 -10 -15
-15 0 -5 7 -9 15 -9 8 0 15 -4 15 -10 0 -5 -9 -10 -20 -10 -11 0 -20 -4 -20
-9 0 -15 30 -21 51 -11 21 12 25 30 8 47 -8 8 -8 13 0 17 17 11 -6 46 -29 46
-10 0 -22 -4 -25 -10z"/>
<path d="M1867 614 c-13 -14 -7 -22 13 -17 11 3 20 1 20 -4 0 -6 -9 -22 -20
-36 -26 -33 -25 -37 10 -37 17 0 30 5 30 11 0 6 -7 9 -15 5 -20 -7 -19 8 0 24
22 18 15 54 -10 58 -12 2 -24 0 -28 -4z"/>
<path d="M1952 608 c-14 -14 -16 -57 -3 -76 4 -8 19 -12 32 -10 21 3 24 8 24
48 0 37 -3 45 -20 48 -11 1 -26 -3 -33 -10z m38 -39 c0 -20 -4 -29 -12 -27
-15 5 -22 33 -14 54 9 24 26 6 26 -27z"/>
<path d="M2414 608 c-4 -6 -2 -14 4 -16 7 -2 12 -22 12 -43 0 -24 4 -38 10
-34 6 3 10 28 10 56 0 36 -4 49 -14 49 -8 0 -18 -5 -22 -12z"/>
<path d="M2477 614 c-13 -14 -7 -81 9 -95 27 -22 49 1 49 52 0 40 -3 44 -25
47 -14 2 -29 0 -33 -4z m41 -47 c2 -19 -1 -27 -12 -27 -11 0 -16 10 -16 31 0
38 24 35 28 -4z"/>
<path d="M1695 370 c-20 -22 -25 -70 -12 -107 6 -18 5 -23 -7 -23 -9 0 -16 -4
-16 -10 0 -5 11 -10 23 -10 13 0 32 -9 42 -20 24 -26 48 -27 40 -1 -6 20 -2
21 138 33 16 2 36 13 46 27 l18 23 51 -22 c36 -16 62 -20 84 -16 44 9 47 9 92
0 36 -6 41 -4 65 25 31 38 53 34 71 -10 14 -34 26 -36 60 -9 30 24 44 25 60 5
28 -34 80 -8 80 39 0 23 -21 20 -27 -4 -6 -24 -26 -26 -43 -5 -16 19 -41 19
-66 0 -27 -20 -39 -18 -52 9 -12 27 -65 44 -86 27 -9 -8 -19 -4 -36 14 -29 31
-64 32 -84 3 -13 -18 -16 -19 -16 -5 0 20 -46 34 -69 20 -9 -6 -17 -22 -19
-37 -3 -24 -6 -26 -40 -20 -30 5 -41 2 -56 -14 -10 -12 -23 -19 -30 -16 -7 3
-29 -2 -49 -11 -46 -19 -121 -20 -136 -1 -7 8 -14 30 -18 49 -4 28 -1 37 17
50 16 11 28 13 41 7 24 -13 29 -13 29 4 0 31 -69 35 -95 6z m395 -71 c0 -38
-24 -35 -28 4 -2 19 1 27 12 27 11 0 16 -10 16 -31z m118 4 c4 -25 -16 -31
-36 -11 -20 20 -14 40 11 36 14 -2 23 -11 25 -25z"/>
<path d="M847 317 c-46 -33 -24 -137 28 -137 45 0 62 93 25 130 -23 23 -30 24
-53 7z m38 -68 c0 -32 -4 -44 -15 -44 -16 0 -26 54 -16 82 12 30 31 6 31 -38z"/>
<path d="M968 322 c-29 -6 -22 -30 7 -24 32 6 35 -23 3 -32 l-23 -6 25 -19
c26 -21 21 -36 -11 -36 -35 0 -24 -20 13 -23 29 -3 39 1 48 19 10 17 9 24 -3
37 -12 11 -13 19 -5 32 21 33 -9 62 -54 52z"/>
<path d="M1186 314 c-18 -18 -19 -24 -7 -43 6 -9 5 -21 -2 -33 -18 -28 3 -53
43 -53 40 0 61 25 43 53 -7 12 -8 24 -2 33 12 19 11 25 -7 43 -20 20 -48 20
-68 0z m52 -32 c3 -9 -2 -13 -14 -10 -9 1 -19 9 -22 16 -3 9 2 13 14 10 9 -1
19 -9 22 -16z m-3 -62 c0 -22 -29 -18 -33 3 -3 14 1 18 15 15 10 -2 18 -10 18
-18z"/>
<path d="M1307 312 c-21 -23 -22 -36 -2 -28 12 4 15 -5 15 -49 0 -30 5 -55 10
-55 6 0 10 32 10 75 0 78 -6 87 -33 57z"/>
<path d="M1380 314 c0 -11 6 -29 14 -40 13 -17 12 -23 -5 -51 -23 -37 -7 -59
18 -23 l15 21 22 -20 c29 -28 39 -16 19 22 -14 28 -14 33 2 60 23 39 5 59 -20
21 l-17 -27 -24 29 c-21 26 -23 27 -24 8z"/>
<path d="M337 313 c-4 -3 -7 -37 -7 -75 l0 -68 29 0 c69 0 104 89 52 131 -23
19 -62 25 -74 12z m58 -68 c0 -30 -4 -41 -17 -43 -15 -3 -18 4 -18 43 0 39 3
46 18 43 13 -2 17 -13 17 -43z"/>
<path d="M527 313 c-4 -3 -7 -21 -7 -40 0 -29 3 -33 26 -33 33 0 30 -33 -4
-38 -32 -5 -27 -22 6 -22 67 0 73 77 7 92 l-20 5 20 7 c11 5 26 10 33 12 6 2
12 8 12 14 0 11 -63 14 -73 3z"/>
<path d="M639 303 c-11 -13 -11 -17 -1 -20 7 -3 12 -23 12 -54 0 -37 4 -49 15
-49 12 0 15 14 15 70 0 73 -12 89 -41 53z"/>
<path d="M716 289 c-7 -38 0 -52 24 -44 10 3 21 1 25 -5 9 -15 -14 -41 -33
-38 -8 2 -17 -3 -19 -9 -3 -9 7 -13 31 -13 29 0 39 5 48 26 14 31 1 57 -31 62
-29 5 -27 22 4 22 16 0 25 6 25 15 0 10 -10 15 -34 15 -29 0 -34 -4 -40 -31z"/>
<path d="M1063 308 c2 -7 13 -12 25 -10 28 4 40 -18 13 -25 -24 -6 -29 -33 -7
-33 20 0 31 -21 16 -30 -7 -4 -21 -5 -31 -3 -22 6 -26 -15 -4 -23 23 -9 65 4
72 23 3 8 1 23 -5 33 -6 9 -7 23 -2 30 15 25 -8 50 -46 50 -24 0 -34 -4 -31
-12z"/>
<path d="M2731 279 c-39 -53 -39 -69 -1 -69 20 0 30 -5 30 -15 0 -8 7 -15 15
-15 8 0 15 6 15 14 0 8 6 17 13 19 9 4 9 8 0 14 -6 4 -13 26 -15 47 -2 22 -8
41 -15 43 -7 3 -26 -15 -42 -38z m29 -29 c0 -11 -7 -20 -15 -20 -13 0 -13 3
-3 20 7 11 14 20 15 20 2 0 3 -9 3 -20z"/>
<path d="M2834 299 c-14 -16 -15 -23 -6 -26 7 -3 12 -22 12 -49 0 -32 4 -44
15 -44 12 0 15 14 15 70 0 39 -4 70 -8 70 -5 0 -17 -10 -28 -21z"/>
<path d="M2920 293 c-25 -31 -24 -90 1 -106 23 -14 66 -1 72 22 7 27 -19 61
-46 62 l-22 0 23 16 c25 18 29 33 8 33 -8 0 -24 -12 -36 -27z m43 -60 c9 -9
-13 -34 -24 -27 -14 8 -11 34 4 34 8 0 17 -3 20 -7z"/>
<path d="M3010 305 c0 -9 9 -15 25 -15 l25 0 -20 -50 c-24 -60 -24 -60 -7 -60
13 0 68 120 61 132 -3 5 -23 8 -45 8 -28 0 -39 -4 -39 -15z"/>
<path d="M3136 289 c-42 -50 -29 -109 24 -109 40 0 58 32 35 66 -8 13 -23 24
-33 25 -14 0 -13 3 6 16 25 18 29 33 8 33 -8 0 -26 -14 -40 -31z m39 -69 c0
-22 -29 -18 -33 3 -3 14 1 18 15 15 10 -2 18 -10 18 -18z"/>
<path d="M3245 306 c-12 -9 -16 -20 -12 -36 3 -12 1 -33 -5 -46 -15 -32 5 -56
45 -52 38 4 57 30 40 56 -7 12 -8 24 -2 33 12 19 11 25 -7 43 -19 20 -35 20
-59 2z m45 -31 c0 -8 -6 -15 -14 -15 -17 0 -28 14 -19 24 12 12 33 6 33 -9z
m0 -59 c0 -8 -5 -18 -11 -22 -14 -8 -33 11 -25 25 10 16 36 13 36 -3z"/>
<path d="M272 243 c2 -42 8 -68 16 -71 9 -3 12 15 12 67 0 57 -3 71 -15 71
-13 0 -15 -12 -13 -67z"/>
</g>
</svg>
