<?xml version="1.0" standalone="no"?>
<!DOCTYPE svg PUBLIC "-//W3C//DTD SVG 20010904//EN"
 "http://www.w3.org/TR/2001/REC-SVG-20010904/DTD/svg10.dtd">
<svg version="1.0" xmlns="http://www.w3.org/2000/svg"
 width="353.000000pt" height="191.000000pt" viewBox="0 0 353.000000 191.000000"
 preserveAspectRatio="xMidYMid meet">

<g transform="translate(0.000000,191.000000) scale(0.100000,-0.100000)"
fill="#000000" stroke="none">
<path d="M197 1836 c-59 -22 -107 -64 -133 -120 l-24 -51 0 -719 c0 -510 3
-730 11 -757 16 -53 63 -105 120 -134 l48 -25 1558 0 1557 0 43 21 c53 25 106
86 121 138 17 54 17 1447 1 1502 -17 54 -61 103 -121 133 l-52 26 -1545 0
c-1265 -1 -1553 -3 -1584 -14z m3116 -67 c51 -14 104 -63 117 -107 14 -50 14
-1394 0 -1444 -15 -51 -77 -105 -132 -113 -24 -3 -725 -5 -1559 -3 l-1515 3
-37 25 c-21 14 -46 43 -57 66 -19 39 -20 62 -20 735 0 426 4 708 10 730 12 44
55 86 106 104 33 12 292 14 1544 15 1021 0 1517 -3 1543 -11z"/>
<path d="M338 1604 c-44 -23 -50 -65 -46 -302 l3 -214 28 -24 28 -24 339 0
339 0 28 24 28 24 0 242 0 242 -28 24 -28 24 -332 0 c-273 -1 -337 -3 -359
-16z m672 -279 l0 -215 -320 0 -320 0 0 215 0 215 320 0 320 0 0 -215z"/>
</g>
</svg>
